PathFileType        4      (X/Y/Z)      C:\Users\cpontonn\Documents\TRAVAIL - COURS\DIGISPORT\Partage Nico\Partage Nico DIGISPORT\TP OPENSIM - eleves - work\DATA\transformed_Statique.trc         
DataRate	CameraRate	NumFrames	NumMarkers	Units	OrigDataRate	OrigDataStartFrame	OrigNumFrames
100.0	100.0	4	38	mm	100.0	229	610
Frame#	Time	LFHD			LBHD			RFHD			RBHD			C7			T10			CLAV			STRN			LSHO			LRAD			LHUM			LWRB			LWRA			LCAR			RSHO			RRAD			RHUM			RWRB			RWRA			RCAR			LFWT			LBWT			RFWT			RBWT			LKNE			LKNI			LANE			LHEE			LANI			LTAR			LTOE			RKNE			RKNI			RANE			RHEE			RANI			RTAR			RTOE			
		X1	Y1	Z1	X2	Y2	Z2	X3	Y3	Z3	X4	Y4	Z4	X5	Y5	Z5	X6	Y6	Z6	X7	Y7	Z7	X8	Y8	Z8	X9	Y9	Z9	X10	Y10	Z10	X11	Y11	Z11	X12	Y12	Z12	X13	Y13	Z13	X14	Y14	Z14	X15	Y15	Z15	X16	Y16	Z16	X17	Y17	Z17	X18	Y18	Z18	X19	Y19	Z19	X20	Y20	Z20	X21	Y21	Z21	X22	Y22	Z22	X23	Y23	Z23	X24	Y24	Z24	X25	Y25	Z25	X26	Y26	Z26	X27	Y27	Z27	X28	Y28	Z28	X29	Y29	Z29	X30	Y30	Z30	X31	Y31	Z31	X32	Y32	Z32	X33	Y33	Z33	X34	Y34	Z34	X35	Y35	Z35	X36	Y36	Z36	X37	Y37	Z37	X38	Y38	Z38	
229	2.28	94.23498999999994	1793.02783	423.88895000000014	102.69075999999997	1743.02148	284.6533500000001	-41.86990000000005	1796.15698	418.9812900000001	-23.16200000000003	1736.09204	268.6956500000001	19.967219999999973	1614.58435	238.1051300000001	18.547879999999978	1386.92993	168.4302800000001	19.340319999999952	1540.48499	365.9180900000001	16.76520999999995	1364.69775	411.56311000000005	221.47983999999997	1578.2738	292.2793900000001	278.72164999999995	1202.30334	275.07724000000013	219.11272999999997	1208.32288	244.6616700000001	291.24944999999997	963.98584	368.98477000000014	217.19724999999994	965.61169	393.51944000000003	269.92483999999996	892.78979	425.9364900000001	-171.53838000000002	1575.85437	292.65845000000013	-239.69102000000004	1200.84546	270.17566	-186.63655000000003	1203.42358	237.74921000000006	-266.4435700000001	959.41229	365.44891	-204.16705000000005	961.55249	403.81845000000004	-261.6932100000001	889.23419	415.12946	116.66118999999995	1068.6637	436.40717000000006	47.30533999999997	1110.62695	244.76411000000004	-74.30936000000005	1068.7937	444.56464000000005	-33.85817000000003	1110.07202	247.41422000000006	189.11699999999996	564.27496	254.49722000000006	80.95495999999997	521.71692	269.36395000000005	195.11997999999997	108.00129999999999	233.65736000000004	137.01044999999996	27.71543999999999	158.66397000000003	108.39309999999998	112.53546999999999	250.9343	229.80131999999995	44.25443999999998	391.78937	149.04612999999995	46.29807999999997	451.04825	-168.76691000000002	559.17657	288.67273000000006	-79.58332000000003	509.92389	283.07626000000005	-184.75969000000003	99.30217999999999	236.57821999999996	-121.30766000000001	31.040289999999988	160.41764999999998	-93.46973000000003	119.34157999999998	252.65424	-220.69333000000006	41.08278999999998	391.79211	-137.30928000000006	42.918479999999974	452.87881	
230	2.29	94.23816999999994	1793.06067	424.0739100000001	100.13998999999997	1743.09314	281.8567500000001	-41.86601000000005	1796.15686	419.1627200000001	-23.159340000000032	1736.07654	268.9009700000001	20.006719999999973	1614.58569	238.2824400000001	18.54258999999998	1386.95068	168.56747000000007	19.330999999999953	1540.45605	366.0978700000001	16.74983999999995	1364.64905	411.7114000000001	221.48287999999997	1578.2511	292.4408600000001	277.58230999999995	1202.27124	275.3443900000001	219.13698999999997	1208.31226	244.73470000000012	290.46245999999996	964.01587	368.8401500000001	217.22284999999994	965.58038	393.59442000000007	269.94982999999996	892.75854	426.0231900000001	-171.53384000000003	1575.84473	292.82278000000014	-239.69263000000004	1200.84448	270.22153	-186.60423000000003	1203.43152	237.81122000000005	-266.43237000000005	959.40179	365.41669	-204.15500000000006	961.50378	403.77466000000004	-261.6916800000001	889.1803	415.07474	116.65599999999995	1068.65076	436.51160000000004	47.30586999999997	1110.64685	244.88029000000006	-74.30500000000006	1068.77112	444.6476400000001	-33.80663000000003	1110.09351	247.52159000000006	189.12188999999998	564.289	254.59164000000007	80.97049999999997	521.73157	269.44470000000007	195.12970999999996	107.99267999999998	233.68500000000003	137.01529999999997	27.73471999999999	158.65945000000002	108.40875999999997	112.52523999999998	250.92287	229.80620999999994	44.24053999999998	391.77094	149.04308999999995	46.29313999999997	451.04651	-168.77267000000003	559.17053	288.7034300000001	-79.60024000000003	509.92813	283.1423300000001	-184.75958000000003	99.29640999999998	236.58678999999998	-121.31959000000002	31.04896999999999	160.41370999999998	-93.46543000000003	119.32982999999999	252.65755	-220.69972000000007	41.09414999999998	391.79312	-137.31238000000005	42.89292999999997	452.86349	
231	2.3	94.25726999999995	1793.09692	424.2163400000001	100.17335999999997	1743.0708	282.0649400000001	-41.84044000000005	1796.16895	419.3234300000001	-23.17437000000003	1736.04382	269.0753800000001	20.00901999999997	1614.57214	238.45483000000007	18.56715999999998	1386.94116	168.69556000000009	19.332199999999954	1540.41406	366.2711500000001	16.72333999999995	1364.61353	411.84897000000007	221.47498999999996	1578.23572	292.6336700000001	277.60274999999996	1202.25061	275.4297200000001	219.19065999999998	1208.32617	244.8244900000001	290.49618999999996	963.97961	368.90338000000014	217.24346999999995	965.53998	393.64044000000007	269.9671599999999	892.72736	426.0815100000001	-171.53372000000002	1575.84485	292.9611500000001	-239.67035000000004	1200.8429	270.30447	-186.59196000000003	1203.42688	237.86446000000007	-266.44299000000007	959.35406	365.39102	-204.15021000000004	961.45923	403.73642000000007	-261.68646000000007	889.13208	415.02042	116.66855999999994	1068.63904	436.62048000000004	47.349039999999974	1110.65417	245.01616000000007	-74.28944000000006	1068.74207	444.73334000000006	-33.792590000000025	1110.08765	247.61313000000007	188.77646999999996	564.14771	254.89958000000004	80.99440999999997	521.72351	269.48361000000006	195.13350999999997	108.00255999999999	233.67509000000004	136.99322999999998	27.73434999999999	158.65845000000002	108.40226999999997	112.53028999999998	250.94838	229.79883999999996	44.24180999999998	391.77448	149.05094999999994	46.27246999999997	451.05035	-168.76547000000002	559.16754	288.74960000000004	-79.58911000000003	509.94046	283.1655600000001	-184.75342000000003	99.29367999999998	236.59354999999996	-121.32252000000001	31.03759999999999	160.41187999999997	-93.47126000000003	119.33558999999998	252.66638	-220.68295000000006	41.080959999999976	391.7923	-137.30537000000007	42.88245999999997	452.85916	
232	2.31	94.27254999999994	1793.14368	424.3582800000001	102.66717999999997	1743.01257	285.1624500000001	-41.82022000000005	1796.18799	419.4908800000001	-23.19718000000003	1736.02271	269.26593000000014	20.03457999999997	1614.56372	238.60315000000008	18.585129999999978	1386.96643	168.8167400000001	19.333709999999954	1540.3678	366.45728000000014	16.71966999999995	1364.56604	411.97528000000005	221.49062999999998	1578.20239	292.8324300000001	278.7810999999999	1202.26404	275.3987400000001	219.20585999999997	1208.31299	244.9420300000001	290.50008999999994	963.93726	368.9519300000001	217.27373999999995	965.50671	393.70959000000005	269.99514999999997	892.67957	426.11121000000014	-171.51671000000002	1575.82849	293.1108400000001	-239.64482000000004	1200.82922	270.3515	-186.55574000000001	1203.42651	237.92873000000006	-266.43759000000006	959.32935	365.3913	-204.14767000000006	961.41852	403.72479000000004	-261.68646000000007	889.06793	414.99719	116.67711999999995	1068.61182	436.71182000000005	47.36031999999997	1110.6593	245.13943000000006	-74.31078000000005	1068.73303	444.82666000000006	-33.77744000000003	1110.09937	247.74094000000005	189.16543999999996	564.29059	254.77028000000007	81.01413999999997	521.73633	269.55292000000003	195.13852999999997	108.00109999999998	233.68871000000001	137.01528999999996	27.736809999999988	158.65024000000003	108.40224999999997	112.52486999999999	250.94922	229.80785999999995	44.23331999999998	391.78006	149.04416999999995	46.28193999999997	451.05069	-168.75304000000003	559.16754	288.7891200000001	-79.58509000000002	509.93735	283.17892000000006	-184.76234000000002	99.28859999999999	236.59305999999998	-121.30329000000002	31.045549999999988	160.43006999999997	-93.46965000000003	119.32209999999999	252.67271	-220.68837000000005	41.07603999999998	391.79279	-137.30856000000006	42.86982999999997	452.86069	
